<svg xmlns="http://www.w3.org/2000/svg" fill="none" viewBox="0 0 200 200" height="400" width="400"><g id="on-site-work-field--work-on-site-work-field"><g id="laptop"><path id="vector" fill="#000000" d="M110.211 111.6c-.115 3.774-.315 7.53-.6 11.354-.108 1.453-1.311 2.624-2.797 2.723-21.67 1.441-41.273 1.484-61.358.427a3.019 3.019 0 0 1-2.841-2.748c-1.221-12.698-1.225-24.937-.246-37.108.116-1.442 1.315-2.605 2.791-2.705 21.299-1.445 41.091-1.464 61.375-.421 1.479.076 2.698 1.22 2.836 2.662.138 1.436.25 2.835.356 4.226.333-.01.667-.013 1.001-.021a215.803 215.803 0 0 0-.362-4.301c-.185-1.931-1.81-3.464-3.78-3.565-20.813-1.075-40.702-.99-61.495.422-1.966.134-3.565 1.69-3.721 3.623-.979 12.155-.986 24.458.256 37.371.186 1.929 1.809 3.461 3.775 3.564 21.769 1.146 41.362.909 61.477-.428 1.98-.132 3.583-1.7 3.728-3.646.289-3.882.493-7.716.608-11.59-.335.053-.669.109-1.005.162l.002-.001Z"></path><path id="vector_2" fill="#000000" d="M115.858 138.679c-5.657-6.066-5.215-5.676-5.528-5.679-22.457-.274-42.643.169-69.673-.207-.27.003.36-.444-7.545 6.083a.5.5 0 0 0 .312.885c15.989.222 72.698.296 82.262.208.056-.43.109-.86.172-1.29Zm-75.031-4.884c26.857.372 46.966.431 69.293.207l1.872 2.004c-20.828.262-50.634.161-73.535-.251l2.37-1.96Zm-6.029 4.984 2.475-2.046c14.66.273 67.721.366 75.642.261l1.854 1.985c-22.846.22-54.606.141-79.972-.199l.001-.001Z"></path><path id="vector_3" fill="#000000" d="M88.674 147.341c-9.332-.137-18.232-.387-27.966-.279-.362.024-.648-.416-.429-.766l2.498-3.987a.5.5 0 0 1 .415-.234c7.696-.136 15.494.005 23.179.417a.5.5 0 0 1 .401.241l2.331 3.849a.5.5 0 0 1-.429.759Zm-.905-1.029-1.716-2.834a325.544 325.544 0 0 0-22.573-.407l-1.868 2.982c8.067-.079 17.829 0 26.157.259Z"></path><path id="vector_4" fill="#000000" d="M22.647 149.652a96.768 96.768 0 0 1 1.073 3.613h91.415a72.54 72.54 0 0 1-.09-3.613H22.647Z"></path><path id="vector_5" fill="#000000" d="M115.89 131.447a5.663 5.663 0 0 0-4.083-1.75h-1.141c1.901-.506 3.665-2.282 3.804-4.192.359-4.94.614-9.802.725-14.737-.334.058-.67.112-1.005.169a293.055 293.055 0 0 1-.718 14.496 3.42 3.42 0 0 1-3.167 3.15c-17.937 1.214-51.332 1.384-68.305.476-1.671-.089-3.05-1.414-3.217-3.178-1.334-14.124-1.395-27.972-.279-42.114a3.425 3.425 0 0 1 3.16-3.129c23.661-1.634 45.599-1.663 68.325-.469a3.424 3.424 0 0 1 3.212 3.081c.215 2.278.389 4.497.536 6.677.353-.004 0-.005 1.001-.014a249.512 249.512 0 0 0-.541-6.758 4.43 4.43 0 0 0-4.154-3.986c-22.765-1.197-44.843-1.159-68.447.47a4.433 4.433 0 0 0-4.088 4.05c-1.124 14.247-1.054 28.155.291 42.384.154 1.625 1.206 2.997 2.641 3.625-1.449 0-2.756.268-4.05 1.382L21.2 145.612c.134.335.263.672.39 1.01l15.472-14.802a4.64 4.64 0 0 1 3.025-1.123h71.721c1.263 0 2.487.525 3.329 1.405l1.544 1.946c.088-.413.202-.819.297-1.23l-1.088-1.371Z"></path></g><g id="sign"><path id="vector_6" fill="#000000" d="M118.239 92.563c-.178-1.914-1.883-3.33-3.753-3.153-.437.005-.875.021-1.312.028-24.846-9.588-24.104-9.434-24.954-9.357-.939.087-.2-.236-19.919 13.444-.756.127-1.515.242-2.269.375-1.992.186-3.324 1.983-3.151 3.718-.262 4.401.2 9.394 1.364 14.782.168 1.806 1.693 3.166 3.44 3.166 12.9 0 32.055-1.495 48.789-4.506 1.903-.188 3.305-1.884 3.13-3.743.02-4.588-.442-9.566-1.365-14.754ZM88.312 81.077c.502-.053.187-.033 22.214 8.417A299.623 299.623 0 0 0 70.6 93.145c17.537-12.194 17.183-12.02 17.713-12.068h-.001Zm28.047 28.989c-1.092.113-20.131 4.084-48.412 4.487-1.291.123-2.566-.782-2.715-2.305-1.154-5.358-1.609-10.26-1.354-14.646-.122-1.314.809-2.571 2.287-2.711 17.069-3.002 35.329-4.493 48.602-4.493 1.269 0 2.356.972 2.481 2.299.918 5.17 1.375 10.087 1.357 14.664a2.484 2.484 0 0 1-2.246 2.705Z"></path><path id="vector_7" fill="#000000" d="M115.062 107.311c-5.358 1.479-10.983 1.969-16.85 1.562-.572.053-1.125-.868-1.235-2.057-.576-3.81-.925-7.38-.987-10.648-.11-1.19.264-2.197.836-2.25a50.074 50.074 0 0 1 16.85-1.562c.572-.053 1.101.87 1.235 2.058.415 3.672.75 7.226.987 10.648.083 1.192-.264 2.196-.836 2.249Z"></path><path id="vector_8" fill="#000000" d="M70.155 100.095c-.637 0-.672-.95-.037-.999l20.784-1.55c.66-.057.734.947.074.996l-20.822 1.552.001.001Z"></path><path id="vector_9" fill="#000000" d="M70.351 104.212c-.646.006-.669-.969-.023-1 4.721-.227 9.498-.621 14.198-1.169.657-.08.774.917.116.993-5.99.699-12.651 1.16-14.291 1.176Z"></path><path id="vector_10" fill="#000000" d="M70.693 108.213c-.63 0-.676-.935-.049-.998a316.907 316.907 0 0 1 19.26-1.334c.666-.021.696.973.039.999-14.013.541-17.986 1.333-19.25 1.333Z"></path></g><g id="crane"><path id="vector_11" fill="#000000" d="M154.131 151.762c-.413-.208-2.138-.698-3.909-.621-3.357 2.69-3.612 6.599-3.789 10.835-.734.205-1.401.385-2.035.55.317 1.362.866 2.623 1.66 3.622 1.987 2.5 6.388 2.404 7.893 1.734 2.259-1.006 3.918-4.257 3.918-8.102 0-3.743-1.572-6.923-3.738-8.017v-.001Zm-1.657 15.44c-2.423 0-4.395-3.33-4.395-7.423s1.972-7.423 4.395-7.423c2.423 0 4.395 3.33 4.395 7.423s-1.972 7.423-4.395 7.423Z"></path><path id="vector_12" fill="#000000" d="M152.656 164.137c-1.732 0-3.089-2.06-3.089-4.69 0-2.63 1.357-4.69 3.089-4.69s3.088 2.06 3.088 4.69c0 2.63-1.356 4.69-3.088 4.69Zm0-8.38c-1.132 0-2.089 1.69-2.089 3.69s.957 3.69 2.089 3.69c1.132 0 2.088-1.69 2.088-3.69s-.957-3.69-2.088-3.69Z"></path><path id="vector_13" fill="#000000" d="M189.983 146.555c-.221-.133-.597-.299-1.068-.452-1.443.106-3.394.262-5.459.433-1.483 1.124-2.369 3.078-2.659 5.192.574 1.566.777 3.416.54 5.253.986 2.615 2.699 4.062 6.861 4.062 2.706 0 4.826-3.296 4.826-7.503 0-3.221-1.244-5.904-3.042-6.985h.001Zm-1.785 13.488c-2.074 0-3.827-2.978-3.827-6.503s1.752-6.503 3.827-6.503 3.826 2.978 3.826 6.503-1.752 6.503-3.826 6.503Z"></path><path id="vector_14" fill="#000000" d="M188.359 157.449c-1.563 0-2.788-1.846-2.788-4.203s1.225-4.203 2.788-4.203c1.563 0 2.788 1.846 2.788 4.203s-1.225 4.203-2.788 4.203Zm0-7.406c-.969 0-1.788 1.467-1.788 3.203 0 1.736.819 3.203 1.788 3.203.969 0 1.788-1.467 1.788-3.203 0-1.736-.819-3.203-1.788-3.203Z"></path><path id="vector_15" fill="#000000" d="M179.138 148.415c-1.19-.902-4.704-1.946-6.911-.52-.356.23-.673.516-.97.826-.043.266-.47 4.573-.404 4.573-.566.163-1.146.269-1.73.343-.351 2.699.216 5.634 1.74 7.552 1.374 1.729 3.816 2.144 6.024 2.144 2.83 0 5.047-3.453 5.047-7.86 0-3.139-1.125-5.791-2.796-7.056v-.002Zm-2.251 13.917c-2.231 0-4.047-3.078-4.047-6.86 0-3.782 1.815-6.86 4.047-6.86 2.232 0 4.047 3.077 4.047 6.86 0 3.783-1.815 6.86-4.047 6.86Z"></path><path id="vector_16" fill="#000000" d="M177.056 159.555c-1.628 0-2.904-1.929-2.904-4.392s1.276-4.392 2.904-4.392 2.904 1.929 2.904 4.392-1.276 4.392-2.904 4.392Zm0-7.784c-1.032 0-1.904 1.553-1.904 3.392s.872 3.392 1.904 3.392 1.904-1.553 1.904-3.392-.872-3.392-1.904-3.392Z"></path><path id="vector_17" fill="#000000" d="M159.795 159.32a.5.5 0 0 1-.5-.504c.018-2.327.095-4.644.016-6.974a.5.5 0 0 1 .402-.507l3.361-.669c5.762-1.148 6.46 6.533 1.671 7.85-1.755.482-3.821.79-4.949.804h-.001Zm.528-7.087c.054 2.055-.001 4.112-.022 6.05a22.85 22.85 0 0 0 4.179-.731c3.582-.986 3.266-6.792-1.21-5.905l-2.946.586h-.001Z"></path><path id="vector_18" fill="#000000" d="M169.522 136.011c-.627 0-.677-.929-.054-.997a117.564 117.564 0 0 0 15.502-2.758.5.5 0 0 1 .241.971c-7.27 1.805-14.964 2.784-15.689 2.784Z"></path><path id="vector_19" fill="#000000" d="M168.882 139.466c-.616 0-.681-.905-.072-.995a519.186 519.186 0 0 0 14.768-2.377.5.5 0 0 1 .173.985c-2.914.512-14.315 2.386-14.869 2.386v.001Z"></path><path id="vector_20" fill="#000000" d="M142.41 139.226a.501.501 0 0 1-.476-.483c-.162-4.965-.045-10.511 2.048-14.003a.5.5 0 0 1 .163-.167c3.997-2.503 7.496-2.2 12.048-2.737a.505.505 0 0 1 .523.312c1.197 3.02 1.31 11.02 1.303 14.319a.499.499 0 0 1-.356.478c-5.483 1.646-9.627 2.553-15.253 2.281Zm.509-.979c5.057.181 8.93-.616 14.101-2.153-.003-2.785-.11-10.152-1.104-13.22-4.242.463-7.531.267-11.136 2.482-1.84 3.173-1.994 8.244-1.861 12.891Z"></path><path id="vector_21" fill="#000000" d="M90.8 66.617h-.634V27.03a.5.5 0 0 0-1 0v39.587h-.413a2.466 2.466 0 0 0-2.463 2.464v2.268a2.467 2.467 0 0 0 2.463 2.464h.322c-.027 3.432-.009 4.311-.334 5.126-.854 2.14-3.302 1.228-3.054-1.092.07-.654-.924-.77-.994-.106-.371 3.473 3.695 4.781 4.977 1.57.428-1.07.379-2.158.406-5.498h.724a2.467 2.467 0 0 0 2.464-2.464v-2.268a2.467 2.467 0 0 0-2.464-2.464Zm1.464 4.731c0 .807-.657 1.464-1.464 1.464h-2.046a1.465 1.465 0 0 1-1.463-1.464V69.08c0-.807.656-1.464 1.463-1.464H90.8c.807 0 1.464.657 1.464 1.464v2.268Z"></path><path id="vector_22" fill="#000000" d="M154.498 140.972c-.606 0-.685-.884-.088-.992a9.949 9.949 0 0 0 3.083-1.105.5.5 0 1 1 .487.873c-1.474.823-3.168 1.224-3.482 1.224Z"></path><path id="vector_23" fill="#000000" d="M136.749 143.571a1.215 1.215 0 0 0-1.283-1.189c-5.749.261-10.218-.176-15.658-1.91-.721-.23-1.472.269-1.562 1.021-.214 1.785-.369 3.226-.303 5.13.016.479.33.896.774 1.075 2.415.975 4.07 1.957 6.527 3.209 1.287.656 1.661.71 3.023.394 2.828-.658 4.877-1.338 7.547-2 .543-.135.931-.616.934-1.176.006-1.205.019-3.24.003-4.553l-.002-.001Z"></path><path id="vector_24" fill="#000000" d="M194.868 144.641c-.137-1.181-.589-1.456-1.345-1.783-1.253-.543-3.324-1.079-5.581-1.572.342-1.042.236-14.739.203-16.62-.026-1.462-.109-2.768-.767-3.91.061-2.194-.261-4.362-.578-6.459-.189-1.252-.408-2.862-1.806-3.257-1.084-.311-6.383-.863-8.656-.416L96.472 23.281c1.563-4.6-2.71-9.426-7.675-7.961a6.25 6.25 0 0 0-4.223 7.769c.949 3.207 3.948 4.75 6.767 4.414l74.494 82.508c-2.227-.096-4.603-.204-4.885-.263-1.756-.498-2.719 1.5-3.036 2.155-.503 1.042-1.533 3.36-2.548 5.718-9.081-1.504-21.039-1.985-29.279.473-4.224 1.26-6.082 2.921-7.85 8.292-2.824 7.876-4.428 20.059-3.297 30.824.218 2.08.806 2.675 2.33 3.218 4.502 1.607 9.269 2.378 13.879 3.125 6.097.986 7.798 1.033 15.417-1.093a.499.499 0 0 0 .365-.46c.097-2.33.198-4.738 1.021-6.928.719-1.912 2.607-4.129 4.523-4.529 3.521-.734 5.432 5.115 5.074 9.011a.5.5 0 0 0 .677.513l1.745-.671a.502.502 0 0 0 .321-.463c.013-1.842.168-6.073-.087-9.085 2.141-.386 4.302-.738 6.51-.999.597.562.223 3.945.225 4.512.002.579.334.883.873.883a12 12 0 0 0 3.177-.467.5.5 0 0 0 .357-.548c.008-.445.333-3.961.394-4.379.093-.65.167-.7.728-.79.835-.132 18.858-1.832 19.16-1.539.333.328.509 2.638.426 3.844-.008.123-.034.495.273.73.378.29.594.14 2.199-.407.147-.05.349-.119.524-.279 1.035-.948-.052-4.625-.185-5.766l.002-.002Zm-30.374-8.471c.028.997.104 6.601.104 6.619a129.145 129.145 0 0 1-4.316-.742c.242-5.481.362-11.052-.286-16.554l15.248 1.205a191.982 191.982 0 0 0-8.586 5.449c-1.894 1.28-2.219 2.041-2.164 4.023Zm-4.258 6.878c2.398.445 4.675.824 4.876.822 3.59-.034 18.237-1.164 21.771-1.797 1.519.315 2.96.653 4.237 1.033-3.119.232-29.39 2.535-31.042 2.678.062-.449.059-.648.158-2.736Zm26.908-18.364a332.23 332.23 0 0 1-.104 15.941c-.012.431-.015.427-.417.481-7.109.956-14.547 1.402-21.022 1.738-.001-.059-.078-5.701-.106-6.703-.046-1.62.099-2.068 1.723-3.166 5.271-3.562 12.404-7.856 19.453-11.418.398.884.453 1.947.473 3.127Zm-2.564-12.701c.756.069 1.031 1.138 1.144 1.888.343 2.282.706 4.477.663 6.701a193.753 193.753 0 0 0-8.527 4.594c.046-.116 3.273-8.067 4.916-11.473.388-.804.907-1.782 1.804-1.71ZM90.147 22.978a1.754 1.754 0 0 1 .292-2.353c.721-.608 1.879-.584 2.567.343l82.358 90.066a2.277 2.277 0 0 0-.589.606c-.593.94-1.364 1.901-2.216 2.62L90.147 22.978Zm80.511 92.338c-2.32.611-4.383-1.747-3.682-4.042 3.619 4.008 3.424 3.837 3.682 4.042Zm-11.843-2.979c.633-1.312 1.21-1.81 1.863-1.628.274.078 1.535.146 5.325.309-1.233 4.146 4.583 9.14 9.617 1.156.114-.181.266-.324.465-.439.771-.446 4.244-.346 6.789-.036-1.194 1.189-3.719 7.743-6.343 14.096-.732-.059-10.102-.774-16.658-1.292a50.75 50.75 0 0 0-.918-4.982c-.115-.481-.577-1.351-.921-1.419a80.16 80.16 0 0 0-1.661-.313c.806-1.889 1.67-3.854 2.442-5.452Zm-36.358 8.596c3.153-2.636 11.089-3.38 15.574-3.516a87.127 87.127 0 0 1 15.831.971c-4.802.335-11.607 1.455-13.446 5.903a61.272 61.272 0 0 1-19.269-1.895 7.398 7.398 0 0 1 1.31-1.463Zm-1.761 2.389a62.233 62.233 0 0 0 19.208 2.001 70.655 70.655 0 0 0-1.209 13.576 44.095 44.095 0 0 1-17.597-1.093c-1.165-.316-2.03-.606-2.806-.941-.547-.236-1.283-.605-1.404-1.188.899-4.686 1.833-8.289 3.808-12.355Zm-5.14 25.81c1.212 1.047 2.05 1.453 2.941 1.936.013.343-.035.975-.096 1.084-.111.021-2.183-.369-2.819-.48a74.147 74.147 0 0 1-.026-2.54Zm24.568 13.757c-.063.064-.267.099-.364.115-2.796.474-5.671.009-8.451-.44-4.566-.739-9.288-1.503-13.703-3.079-1.151-.412-1.493-.681-1.672-2.381a70.474 70.474 0 0 1-.315-4.41c2.36.412 2.769.575 3.204.363.842-.411.658-2.229.655-2.247-.149-.876-1.453-.6-3.898-3.028a74.674 74.674 0 0 1 1.054-10.748c1.824 1.578 11.633 4.332 22.151 2.855a103.06 103.06 0 0 0 .247 7.986c.054.749.209 1.283.438 1.67-.031.135-.027.004.037 1.104-1.314.618-3.212 1.23-5.173 1.659-.406.089-.636.435-.685 1.04-.046.568-.415 1.373.081 2.06.414.574 1.161.631 1.562.662l4.552.35c.363 6.228.414 6.334.282 6.468l-.002.001Zm-.556-11.166.215 3.691-4.416-.339c-.976-.075-.976-.268-.816-1.057.115-.566.085-.604.113-.757.992-.221 3.097-.745 4.904-1.538Zm7.448 2.995c-.835 2.222-.971 4.58-1.068 6.874-1.405.391-3.128.849-4.769 1.164.03-.356.023-.168-.689-12.391.636.209 1.326.177 3.413.177 2.358 0 4.659-.196 7.988-.86-2.183.667-4.116 3.017-4.875 5.036Zm.475-5.358c-2.237.24-3.681.162-5.149.173-1.677.01-2.187.016-2.313-1.729-.488-6.733-.362-14.913.856-21.553.396-2.158 1.332-3.463 3.233-4.505 3.946-2.165 9.092-2.368 13.228-2.532.445-.019.505-.017.637.54 1.98 8.297 1.561 16.966 1.155 25.35-.057 1.175-.151 1.572-1.74 2.103a47.318 47.318 0 0 1-9.906 2.154l-.001-.001Zm11.805 9.221-.705.271c.096-4.055-1.874-9.571-5.717-9.366 1.314-.29 4.845-1.164 5.995-1.834.666 1.735.446 9.035.427 10.929Zm35.082-8.913c-.1.084-1.215.422-1.315.456.018-.916.003-3.612-.74-4.327-.361-.348-.869-.342-1.137-.337-1.599.021-17.297 1.36-18.873 1.61-.969.154-1.399.508-1.561 1.633-.005.035-.371 2.831-.373 4.2-.778.197-1.581.309-2.436.332.065-1.679.563-5.416-1.29-5.416-.562 0-3.974.555-6.558 1.011-.106-.781-.25-1.429-.452-1.837.04-.054.067-.116.101-.174l33.348-2.845c.537-.047.687-.03.782.783.082.705.971 4.429.503 4.911h.001Z"></path><path id="vector_25" fill="#000000" d="M128.689 158.381a46.77 46.77 0 0 1-5.448-.673.498.498 0 0 0-.577.377c-.118.5-.146.953-.087 1.423a.5.5 0 0 0 .37.422c1.877.49 4.203.799 5.707.814a.499.499 0 0 0 .5-.499l.003-1.365a.5.5 0 0 0-.468-.499Z"></path><path id="vector_26" fill="#000000" d="M126.3 154.467c-1.043 0-1.494-.271-5.672-2.072a.5.5 0 0 1 .395-.919c4.795 2.049 4.572 2.133 6.217 1.902 1.589-.225 3.192-.485 4.766-.776a.5.5 0 1 1 .182.984c-.934.172-4.938.881-5.888.881Z"></path><path id="vector_27" fill="#000000" d="M126.395 157.071c-.85 0-1.038-.164-5.775-2.263a.5.5 0 0 1 .406-.914c5.353 2.37 4.916 2.347 6.388 2.028l4.593-.993a.5.5 0 1 1 .211.977c-5.284 1.145-5.253 1.165-5.822 1.165h-.001Z"></path><path id="vector_28" fill="#000000" d="M120.529 133.594c1.729-1.644 2.834-2.9 4.737-4.628.912-.828.917-.742 1.548-1.574.194-.256-.172-.555-.417-.417-.338.19-.642.382-.931.644-1.475 1.338-3.782 3.764-5.109 5.842-.068.107.084.216.172.133Z"></path><path id="vector_29" fill="#000000" d="M129.064 136.65c2.402-3.214 3.821-4.184 4.217-4.662.204-.246.405-.493.615-.734.293-.337-.076-.881-.492-.638-.647.377-1.297.676-2.808 2.538-.805.992-1.514 2.027-2.098 3.164-.197.384.318.664.567.331l-.001.001Z"></path><path id="vector_30" fill="#000000" d="M146.132 134.585c3.685-5.052 5.563-6.313 6.065-7.532.136-.33-.286-.532-.539-.415-.752.348-1.249 1.031-1.77 1.65-1.757 2.091-3.076 3.944-4.309 5.973-.219.36.315.649.553.323v.001Z"></path><path id="vector_31" fill="#000000" d="M151.521 134.012c1.295-1.269 1.091-1.06 2.257-2.343.423-.465.471-.658.61-.977.155-.354-.209-.593-.438-.438-.396.266-.506.301-.878.788-1.069 1.396-.921 1.185-1.931 2.677-.157.232.188.482.38.293Z"></path><path id="vector_32" fill="#000000" d="M188.391 146.227s1.504.422 2.534 1.689c1.03 1.267 1.531 2.745 1.531 2.745.04-4.783-.178-4.699-1.531-4.645-.66.026-2.534.211-2.534.211Z"></path></g><g id="cone"><path id="vector_33" fill="#000000" d="M27.532 163.162c.338-1.283.623-2.366.868-3.281-1.034 1.712-2.114 3.402-3.277 5.02-1.004 1.396-1.408 1.538-2.96 1.517-5.312-.07-11.333-.149-16.484-2.489-.041-.018-.164-.074-.18-.078-.003-.276 2.377-3.309 5.657-6.037l-.791 2.935a.499.499 0 0 0 .167.518c5.812 4.729 14.705 1.649 15.164-1.605.101-.715-.126-1.359-.521-2.892 1.249.096 2.718.307 3.849.847.108-.375.207-.705.296-.986-1.322-.593-2.959-.776-4.411-.886-1.337-5.111-2.851-10.29-5.416-15.009-.713-1.312-1.713-1.88-2.602-1.489-1.172.515-1.11 1.27-5.308 16.972-2.5 1.901-4.809 4.182-6.693 6.679-.593.785-.551 1.521.375 1.941 5.11 2.321 11.352 2.582 17.2 2.582 2.304 0 2.766-.791 5.067-4.259Zm-10.237-23.001c.411-.181.975.417 1.32 1.052 1.074 1.976 1.962 4.043 2.73 6.157-1.673 1.105-4.071 1.52-6.548.625 1.583-5.946 1.969-7.602 2.498-7.834Zm-4.418 15.07c3.416 1.508 8.057 2.038 10.78-.31.97 3.628 1.113 4.151 1.05 4.601-.324 2.297-8.013 5.145-13.289 1.168.494-1.828.978-3.645 1.46-5.458l-.001-.001Z"></path><path id="vector_34" fill="#000000" d="M44.512 173.26c-1.606-1.288-3.868-1.547-5.921-1.701-1.404-5.362-2.989-10.796-5.679-15.747-.581-1.068-1.594-2.037-2.697-1.551-1.223.538-1.182 1.422-5.554 17.788-2.623 1.993-5.044 4.385-7.019 7.003-.612.812-.57 1.568.383 1.998 5.355 2.432 11.898 2.705 18.025 2.705 1.817 0 2.53-.506 3.617-2.02a79.574 79.574 0 0 0 4.97-7.842.501.501 0 0 0-.125-.633Zm-13.895-18.084c.517-.228 1.151.628 1.415 1.113 1.126 2.072 2.056 4.238 2.862 6.453-1.771 1.178-4.317 1.603-6.909.661 1.693-6.358 2.066-7.978 2.632-8.228v.001Zm1.071 17.092c2.496.027 4.086-.192 5.632-1.604 1.024 3.831 1.168 4.378 1.102 4.836-.335 2.361-8.374 5.476-13.985 1.231.52-1.924 1.03-3.836 1.537-5.745 1.92.836 4.106 1.264 5.714 1.282Zm7.166 8.883c-1.056 1.47-1.49 1.623-3.123 1.6-5.571-.073-11.886-.156-17.294-2.613a2.067 2.067 0 0 1-.201-.101c-.02-.286 2.52-3.518 5.998-6.398l-.848 3.151a.499.499 0 0 0 .167.518c6.038 4.914 15.373 1.766 15.86-1.667.105-.737-.122-1.381-.556-3.057 1.548.117 3.405.364 4.689 1.209a78.64 78.64 0 0 1-4.692 7.358Z"></path></g></g></svg>