<svg xmlns="http://www.w3.org/2000/svg" viewBox="0 0 200 200" height="400" width="400"><title>Product-Site-builder</title><path d="M140.094 93.82c0-2.606.147-1.775 0-5.045a39.986 39.986 0 0 1-.032-5.622c0-1.279-.15-.7-.077-4.292a10.209 10.209 0 0 0-.079-3.044c-12.84.561-45.621 1.268-57.5 2.068-36.188 2.435-34.573 2.415-44.981 2.673-3.358.084-.556.019-5.78.361-.34 2.865.878 64.034.878 64.048 0 .417.188 1.612.533 1.788a2.388 2.388 0 0 0 1.891.35c3.65-.146 5.285-.506 6.535-.527 9.718-.163 21.8-1.289 31.521-2.338 4.441-.479 19.442-1.037 21.729-1.376 4.455-.662 22.948-1.918 22.978-1.918 5.052-.629-6 .281 20.728-1.687 1.975-.145.648-5.683 1.971-35.253.122-2.742-.323-1.283-.315-10.186Z" fill="#ffffff"></path><path d="m161.866 57.591 10.979.7 7.28-2.2c1.91 45.289 3.82 90.679 5.2 112.676l-11.787 4.276-16.411-4.739c1.18-41.504 2.584-80.417 4.739-110.713Z" fill="#ffeb8d"></path><path fill="#ffeb8d" d="m53.045 34.916 12.094-12.714h115.766l-.168 11.74-8.594.974H53.045z"></path><path d="M145.917 87.3c.164 6.188.064 3.761-.082 6.661-.106 2.112.49 17.857-.619 42.506-.165 3.657-.315 4.337-.331 5.217-.078 4.193 1.255 4.139-4.055 4.658-4.174.409-4.3.317-5.089.417-13.508 1.725-14.283 1-27.868 2.536-8.462.96-13.2.772-14.771.946-10.587 1.17-9.623.463-20.115 1.328-6.289.517-7.479.746-24.781 1.565-7.494.354-17.453 1.734-20.229 1.1-2.329-.53-.961-2.765-1.556-17.771-1.2-30.249-.559-35.03-.522-60.644.012-7.884-.882-9.221 4.67-9.712 2.625-.232 19.111-.529 21.711-.85s2.755.156 5.9-.075c.026 0 17.139-.673 17.347-.631a22.006 22.006 0 0 1 0 4.132c-.289.023-2.554.2-12.407.433-.023 0-15.946 1.188-19.021.931-.931-.077-4.134.781-6.521.573a26.3 26.3 0 0 0-3.566.4c-1.535.243-2.694.3-3.351 1.835-.5 1.164.022 50.539.508 69.171.2 7.763-.3 6.433 11.975 5.822 11.953-.594 20.677-1.329 24.159-1.669 20.437-2 10.227-.654 25.281-1.817 13.592-1.05 5.965-.788 44.142-3.619 5.016-.372 3.881-.578 4.15-7.274a71.822 71.822 0 0 0 .31-8c.093-13.667.466-16.55.545-21.851.04-2.709-.324-3.538-.308-5.247.122-13.043-.392-10.823-.14-13.147.237-2.187-.256-17-.253-17.028a2.2 2.2 0 0 0-1.309-1.889c-1.479-.5-1.237-.2-6.962-.149-10.972.1-14.335.42-25.239 1.23-2.306.171-3.174-.2-11.179.305-4.891.306-4.153.062-6.822.208-3.626.2-10.76 1.029-11.878.717-.011-1.363 0-2.69.024-4.048 2.725-.37 38.1-1.213 53.143-2.175 1.576-.1 2.939-.446 5.589-.466a50.122 50.122 0 0 0 5.941-.585c.881-.086 2.737.253 2.867 1.128.409 2.735.23 6.673.712 24.828Z" fill="#c3f6c0"></path><path d="M191.646 182.868a29.137 29.137 0 0 1 .026 3.655.688.688 0 0 1-.466.658c-3.381 1.721-13.8 5.226-17.483 6.339-1.186.359-.268-1.728-.6-5.293 1.188-.885-.592.145 9.838-3.214 8.839-2.847 8.552-3.054 8.685-2.145Z" fill="#ffeb8d"></path><path d="M189.879 180.941c.205.862.6.031-16.5 5.706-.2-2.7.247-9.9.441-12.59.047-.638.343-.5 3.221-1.316a73.307 73.307 0 0 0 8.315-2.776c.782.682 1.357 3.046 1.942 4.3 1.337 2.855 1.59 4.489 2.581 6.676Z" fill="#ffeb8d"></path><path d="M180.271 53.173c.067 2.084.6 1.4-3.727 3.086-3.177 1.24-2.578 1.048-2.925 1.09a64.86 64.86 0 0 1-.466-6.472c.023 0 6.873-2.183 6.945-2.2.021.255.131 3.203.173 4.496Z" fill="#ffeb8d"></path><path d="M180.477 34.418a10.387 10.387 0 0 1-.094 2.89c-2.023.531-6.185 1.034-7.636 1.218a25.715 25.715 0 0 1 .181-3.379Z" fill="#ffeb8d"></path><path d="M179.734 37.944c.165 9.441.321 9.431-.166 9.6a60.139 60.139 0 0 1-6.362 2c-.157-.822-.046-3.887-.1-6.931-.036-2.148-.233-2.495.163-3.692Z" fill="#d8e9ff"></path><path d="M172.2 54.463c.073 1.311.13 1.03.233 3.13-.8.121-9.9-.481-10.676-.7a1.7 1.7 0 0 1-.168-.4c-.331-2.015-1.055-3.946-1.307-6.019a12.789 12.789 0 0 1 3.718.166c.114.026 6.642.3 7.406.345.92.057.611.166.794 3.478Z" fill="#ffeb8d"></path><path d="M172.5 173.9c-.205 8.685-.466 4.287-.65 12.58-1.206.436-20.749-6.753-20.772-6.753.259-.833 2.011-4.334 2.154-4.623 3.881-7.814 2.282-6.772 10.155-3.91 3.377 1.23 5.89 1.706 9.113 2.706Z" fill="#ffeb8d"></path><path d="M169.384 187.311c2.473.771 2.584.508 2.562 1.36-.131 4.949-.02 4.722-.276 4.9-7.12-1.891-19.222-6.8-21.3-7.553-.8-.288-.613-.259-.764-3.675-.022-.506-.231-.7.11-1.416.441-.945-.262.173 19.668 6.384Z" fill="#ffeb8d"></path><path d="M171.783 39.165c.314 2.495.158 2.54.158 10.7-3.789-.314-11.161-.6-11.179-.6-1.186 0-.765.049-5.42-8.443a20.109 20.109 0 0 1-1.141-2.213c.512-.232.917-.177 2.664-.074 3.882.233 13.977.218 14.918.63Z" fill="#d8e9ff"></path><path d="M171.985 35.237c.179.233-.046 1.384-.06 1.675s.2 1.1-.091 1.369c-2.562 0-18.318-.426-18.353-.426-.752 0-.561-2.212-.466-2.648 1.179-.354 17.785.002 18.97.03Z" fill="#ffeb8d"></path><path d="M150.677 98.77c.147 1.5-.146 2.18-.091 5.156.226 12.135-.575 11.317-.3 23.921.013.62-.076 8.224-.068 9.987 0 .5.3 10.884-.7 12.9a4.394 4.394 0 0 1-3.125 2.059c-2.588.364-1.63.522-4.584.545-.023 0-15.364 1.117-32.321 2.86-.166.017-11.233.792-17.813 1.446-6.15.611-12.534.386-50.208 4.409-16.333 1.744-10.779 1.54-13.587 1.411-1.668-.076-2.313.026-2.967-.489-5.81-4.572-3-7.115-3.811-30.934-.557-16.347.161-34.548-.591-46.621-.179-2.867-.075-6.755.014-9.629.1-3.186-.194-7.112.261-9.064a4.882 4.882 0 0 1 2.48-3.533 5.918 5.918 0 0 1 3.022-1.094c1.071-.028.752-.231 6.57-.477 20.819-.881 29.386-.685 42.667-1.4.119.931.026 1.816.072 2.755-5.452.452-37.32 1.358-42.792 1.63-6.019.3-7.449.583-8.152 4.658-.181 1.048-.04 5.331-.04 7.129 0 23.4-.365 15.909-.188 32.662.05 4.721.8 42.993.8 43.086.214 4.762 3.872 3.564 6.246 3.7 1.533.087 10.532-.827 10.569-.83 7.268-.506 4.671-.076 30.5-1.921 19.139-1.367 27.287-1.486 31.018-1.9 25.7-2.836 21.855-1.347 25.053-2.015a14.994 14.994 0 0 1 2.806-.347c.51-.008 6.57-.81 6.593-.813a17.937 17.937 0 0 1 3.4-.211c7.141-1.015 3.725-.6 4.679-9.549.465-4.36 1.479-64.684-.193-75.213-.368-2.313-1.91-3.152-4.658-3.046a39.8 39.8 0 0 1-4.852.445c-1.364 0-30.677 2.1-47.148 2.1a24.178 24.178 0 0 0-4.807.277c-1.292.1-5.461.254-6.754.151v-2.65c0-.673.275-.378 2.66-.5 3.205-.162.17-.255 9.828-.336 14.165-.119 37.083-2.451 42.528-2.012 1.064.086 8.365-.3 10.315-.422 6.968-.451 7.132 3.773 7.04 9.028-.038 2.205.247 2.9.11 4.869-.091 1.3.13 3.727.16 4.516.076 1.77.329 23.003.359 23.306Zm-64.867 57.5c.587-.466.9-1.218.755-1.523-1.432-3.028-4.7 1.232-1.319 1.744a1.878 1.878 0 0 0 .564-.218Z" fill="#d8e9ff"></path><path d="M138.311 67.429c1.708.135 1.56 1.2 1.493 3.2-.047 1.428.069 2.655.069 3.864-6.829.773-8.129-.439-22.736.815a28.751 28.751 0 0 1-3.926.1c-5.168-.263-35.611 1.544-35.634 1.539-.168-1.721.126-6.689.131-6.812 1.97-.27 1.7.157 9.923-.743 4.288-.469 5.991.039 9.563-.433 2.6-.343 8.254-.122 9.5-.168 3.067-.113 24.728-1.907 31.617-1.362Zm-7.088 5.119c1.339.014 2.1-1.9.48-2.39a1.111 1.111 0 0 0-1.593.862c-.196.827.067 1.517 1.113 1.528Zm-3.547-.867a1.256 1.256 0 0 0-1.246-1.306c-1.4-.089-1.863 2.366-.249 2.462a1.439 1.439 0 0 0 1.495-1.156Zm-6.994 1.409a1.294 1.294 0 1 0 .028-2.587 1.455 1.455 0 0 0-1.23 1.4 1.3 1.3 0 0 0 1.202 1.187Z" fill="#ffeb8d"></path><path d="M135.066 82.868c.172 7.313.092 7.6-.154 13.4-.162 3.824.177 6.071.131 7.995-.932.214-.085.011-7.919.1-.026 0-6.975.4-7.28.207 0-2.271-.1-16.575-.233-21.485-.041-1.488.165-1.462 1.125-1.484 8.151-.182 11.722-.651 13.261-.64.918.01 1.034.421 1.069 1.907Z" fill="#c3f6c0"></path><path d="M116.25 182.262c.306 3.675.041 1.793-2.308 3.177-.491.289-1.053.358-7.1 1.667-.848.184-7.306 1.952-7.844 2.045-3.467.6-8.692 2.014-8.787 2.043-1.5.46-3.988.763-4.761 1.01a20.567 20.567 0 0 1-3.714.622c-1.128.322-1.4-.356-3.082-1.4a50.64 50.64 0 0 1-6.055-3.976c-14.942-11.677-12.882-5.468-13.017-23.217 1.966-.545 6.864-1.4 14.859-2.984 5.357-1.062 10.16-1.132 21.285-1.968 1.02-.076 1.523-.179 2.035-.179 0 .722.021-1.647.1 8 .026 3.156-.038 3.5 4.945 6.9 1.332.911 9.332 5.679 9.355 5.692 3.176 1.85 4.046 2.046 4.089 2.568Zm-3.018-.128a.841.841 0 0 0-.6-.482c-.35-.107-.378.291-1.046.419-8.683 1.669-3.133.7-13.017 2.753-14.561 3.027-16.673 3.9-17.8 3.128-3.436-2.366-6.2-3.935-10.55-7.374-2.463-1.945-4.972-3.118-6.263-5.086-.611-.933-.321-1.344-.558-3.2-.431-3.366.279-4.372-.424-5.809l-.7.059a37.925 37.925 0 0 0 .012 7.872c.162 2.291 1.495 3 5.256 5.848C80.163 189.805 80.9 190 82.9 189.643c7.818-1.375 26.068-5.944 26.084-5.949 3.255-.68 3.957-.361 4.248-1.56Z" fill="#bed4fc"></path><path d="M97.388 108.445c.112.465 2.126 7.108 2.524 8.472-.838.42-9.628 3.43-9.98 3.479-.745-.918-2.561-9.905-4.93-16.457 5.212-2 7.045-2.473 8.128-2.795 2.996-.89 2.197-1.258 4.258 7.301Zm.7 7.988c.656-.194.465-.8.112-1.043-1.358-.956-1.262-1.258-4.657-4.588-.6-.587-.233-.359 1.432-7.283a4.885 4.885 0 0 0 .044-1.165.4.4 0 0 0-.787-.06c-1.24 3.426-1.053 3.891-2.1 7.022-2.653-2.856-1.646-2.058-3.911-3.6-.819-.557-1.181-.893-1.63-.513-.291.247.021.75.207.9 4.4 3.407 3.129 2.936 4.7 4.353a.769.769 0 0 1 .217.982 44.3 44.3 0 0 0-1.586 6.869.907.907 0 0 0 .142.715c1.4.209.5-.163 2.345-6.612a.778.778 0 0 1 .4-.6c2.667 2.818 4.278 4.858 5.073 4.623Z" fill="#c3f6c0"></path><path d="M95.445 83.913c.282 1.305 1.663 6.629 2.408 10.036-1.653.851-20.633 5.108-23.134 5.669-2.219.5-4.574 1.775-6.381 1.837-.894.031-6.384 1.863-9.935 2.637-1.349-4.109-.519-1.63-1.682-6.754-.234-1.03-.9-2.97-1.083-3.673-.467-1.768 1.12-1.543 3.759-2.3 4.875-1.4 6.754-2.176 9.509-2.562 3.687-.516 7.564-2.962 7.975-.859.52 2.664-2.117.87-3.109 3-.481 1.029-.932 2.94.232 3.44a5.5 5.5 0 0 0 7.961-4.339 7.649 7.649 0 0 0-.214-4.479c1.241-.787 9.46-2.112 11.878-2.725a1.415 1.415 0 0 1 1.816 1.072ZM66.8 99.727c1.9-2.064 1.864-6.214-.959-7.667-4.4-2.262-7.771 2.394-6.41 6.035.653 1.746 1.283 1.872 3.079 2.75a4.05 4.05 0 0 0 4.29-1.118Z" fill="#ffd9db"></path><path d="M81.651 35.712c2.026-.125 2.008-.107 2 .385-.123 5.918-.883 3.964-7.621 4.46-.917.067-6.115.684-6.414-.44a12.456 12.456 0 0 1-.659-4.425c9.964.008 9.85.197 12.694.02Z" fill="#ffeb8d"></path><path d="M81.359 42.415c.117.331.163-.057-.081 2.422a.706.706 0 0 1-.643.643 21.92 21.92 0 0 1-6.521.14c-2.46-.184-2.113-.254-2.734-3.049 3.395.054 6.668-.16 9.979-.156Z" fill="#ffeb8d"></path><path d="M79.165 83.329c1.248.715 2.341 3.1 2.206 5.422s-1.493 4.559-2.995 5.149a6.462 6.462 0 0 1-3.438.233c-.649-.252-1.164-.322-.894-1.3.438-2.035.233-1.895 1.663-2.4 1.791-.628 2.374-.712 1.661-2.4-.53-1.25-.718-1.448-1.689-1.663-.662-.146-1.339.257-2.914.41-.382-2.452 1.976-4.249 2.968-4.031 1.036.234 1.962-.264 3.432.58Z" fill="#ffeb8d"></path><path d="M75.525 70.144c.1.7.229 6.419.2 6.906-4.425.34-1.418.355-13.339.731-.559.018-8.618.86-9.7.9-22.894.769-19.895 1.264-21.059 1.013-.082-5.543-.335-7.3 1.772-7.406 2.634-.137 3.133-.484 5.317-.42 2.29.068 3.415-.466 5.823-.512 7.5-.142 16.785-.733 21.993-.939a89.547 89.547 0 0 1 8.993-.273ZM40.3 76.449a1.934 1.934 0 0 0-.154-2.168 8.438 8.438 0 0 0-.624-.6 2.528 2.528 0 0 0-3.2.156 2.456 2.456 0 0 0-.875 1.63c-.38 1.215 1.129 2.6 2.051 2.592a2.724 2.724 0 0 0 2.802-1.61Z" fill="#ffeb8d"></path><path d="M23.123 163.642c-2.667.2-5.309-2.373-7.255-4.46-1.752-1.879-.666-13.723-1.239-29.662-.03-.832-.123-33.135-.161-35.653-.137-9.16-.638-10.014-.312-19.421.258-7.43-.851-9.336 2.18-11.289 1.691-1.089 5.324-1.185 6.035-1.05-3.354 3-3.191 3.212-3.207 14.831-.042 29.6.652 61.36.656 62 .116 18.709-1.02 20.562 3.303 24.704Z" fill="#bed4fc"></path><path d="M178.683 8.617c0-1.284-1.2-2.93-3.964-2.391a3.162 3.162 0 0 0-2.019 3.419 4.677 4.677 0 0 0 .68 1.454 3.24 3.24 0 0 0 4.966-.639c.311-.491.334-.753.337-1.843Z" fill="#ffeb8d"></path><path d="M180.232 21.072c0-.852-.124-2.606-.291-4.094a14.024 14.024 0 0 0-.864-4.39.208.208 0 0 0-.31-.082 8.2 8.2 0 0 1-5.729 1.4.208.208 0 0 0-.231.205 58.319 58.319 0 0 0 .091 6.074c.069.466 0 .919.361.952.454.042 1.453.074 2.872.073 3.452-.005 4.101.318 4.101-.138Z" fill="#ffeb8d"></path><path d="M115.719 24.7Zm0 0c.568-.379 5.645-3.822-5.261 3.771.822.61 6.03 4.465 6.987 4.926.042-.629.268-9 .065-9.917Zm-21.7 56.763a1.959 1.959 0 0 1 2.29 1.546c1.7 5.378 2.8 12.3 3.63 14.917 2.757 8.659 2.932 11.559 5.078 20.209.915 3.691-.284 3.354-3.832 4.658a18.613 18.613 0 0 1-2.545.785c-2.875.609-7.613 2.76-16.871 5.431-12.919 3.727-16.324 5.911-17.449 2.883-2.747-7.378-9.873-38.481-9.856-38.892a2.157 2.157 0 0 1 .585-1.355 3.5 3.5 0 0 1 1.847-.9c7.862-2.092 8.948-2.846 11.791-3.2 5.844-.732.529-2.562 6.207-5.4.291-.969.291-.969 1.043-1.42a6.473 6.473 0 0 0-.232-2.378c-18.984.973-19.962 1.752-38.28 2.206-3.358.084-.556.019-5.78.361-.34 2.865.878 64.034.878 64.048 0 .417.188 1.612.533 1.788a2.388 2.388 0 0 0 1.891.35c3.65-.146 5.285-.506 6.535-.527 9.718-.163 21.8-1.289 31.521-2.338 4.441-.479 19.442-1.036 21.729-1.376 4.451-.663 22.948-1.918 22.978-1.918 5.052-.629-6 .281 20.728-1.687 1.975-.145.649-5.683 1.971-35.253.122-2.744-.323-1.283-.315-10.186 0-2.606.147-1.775 0-5.045a39.986 39.986 0 0 1-.032-5.622c0-1.279-.15-.7-.077-4.292a10.209 10.209 0 0 0-.079-3.044c-12.84.561-45.621 1.269-57.5 2.068-2.52.169-2.692.383-4.39.381a2.946 2.946 0 0 0-.466.079 19.357 19.357 0 0 0 .054 2.59c.806.174.7.9.92 1.46a4.361 4.361 0 0 1 2.562 1.863Zm98.754 100.88c.418 5.357.272 5.822-1.786 6.561-5.979 2.144-8.8 3.3-13.087 4.718-1.4.463-3.726 1.021-3.752 1.037a4.279 4.279 0 0 1-3.26.035c-.641-.271-7.5-2.271-10.481-3.419-.026-.012-10.248-3.945-11.412-4.6-1-.567-.306-1.108-.6-4.49a6.857 6.857 0 0 1 .174-1.547c0-1.183 1.032-.77 1.482-1.735a78.075 78.075 0 0 1 4.115-8.13 6.682 6.682 0 0 1 1.6-2.527c.394-.421.792-.2.816-1.335.524-25.526 2.706-76.039 2.708-76.065.481-5.964.621-5.508.862-11.353.734-17.831.358-14.023.633-16.65.685-6.545-.228-4.477-.344-5.979a22.911 22.911 0 0 0-.7-3.291c-.857-3.759-.519-3.261-1.209-4.495-4.575-8.183-5.545-10.084-5.638-10.4-.2-.687-.7-.291-.746-1.022-.106-1.837-.062-1.3-.107-1.754-4.082-.466-17.954-.7-21.739-.685a130.624 130.624 0 0 1-16.668-.123c-3.007-.207-8.415.649-11.473.093-1.4-.254-1.451.373-10.31-.193-2.662-.17-4.136.431-6.542.191a2.113 2.113 0 0 0-.364.023c-.132.673-.022 3.652-1 5.424-.564 1.025-1.332.562-1.251 1.572a13.415 13.415 0 0 1-.175 2.709 2.8 2.8 0 0 1-.619 1.417 3.21 3.21 0 0 1-2.161.648 13.581 13.581 0 0 0-1.922.14c-.363.5-.258 1.045-.307 4.39-.095 6.409-.124 4.087.063 6.924a43.477 43.477 0 0 0 5.939-.252c25.2-.257 38.784-2.3 50.283-2.121.759.011 8.481-.34 9.465-.466a7.1 7.1 0 0 1 7.394 3.8c.77 1.556.643 6 .841 17.314.081 4.623.363 19.279.363 21.329 0 2.855-.353 45.99-.363 46.293-.336 10.451.449 9.782-17.176 10.9-.052 0-34.77 2.868-34.87 2.877a74.936 74.936 0 0 0-.233 8.992c1.472.219-2.01-.028 30.687-3.379 1.092-.112 4.482-.223 6.244-.436.121-.015 11.438-2.2 14.919-2.257 1.107-.018.8 1.021.131 1.211-.931.264.615-.156-5.289.676-12.086 1.7-4.645 1.327-14.543 2.1-5.063.393-15.732 1.721-18.166 1.863-4.371.256-3.408.226-12.856 1.747-.316.051-.663-.065-.966.172-.117 2.441 13.245 9.4 15.837 10.83 2.191 1.207 2.427 1.374 2.441 2.019.043 1.98.345 4.086-.834 4.525-2.6.969-31.849 7.649-31.872 7.649a16.869 16.869 0 0 1-3.787.657c-.257.067-.592-.019-3.128-1.559-.381-.231-.7-.56-1.06-.805-7-4.757-1.511-.955-6.726-4.735-7.707-5.586-11.289-7.975-11.528-10.148-.441-3.989-.257-3.137-.4-3.544-.133 0-8.6.917-8.618.931-.931.126-3.26.595-4.867.829-3.161.462-2.281-.179-11.519 1.375a63.588 63.588 0 0 1-6.384.833c-1.057.07-2.944.482-4.535.641-3.249.323-1.282-.355-12.628 1.036-1.143.14-2.974.485-2.7-.624.065-.263.233-.344.566-.373 3.166-.273 1.467-.3 7.171-.892 6.188-.641 6.728-.21 10.56-.978.873-.175 3.444-.344 4.784-.522 2.861-.38 7.953-1.341 10.035-1.436 6.158-.284 1.668-.534 18.166-2.232.2-2.5 0-7.942-.1-10.443-.552-.084-8.151.726-9.3.757-3.636.1-21.6 3.4-27.738 2.185-1.91-.377-4.63-2.833-5.958-4.095-1.583-1.5-1.613-3.912-1.761-6.127-.037-.562-.728-83.413-.6-86.6.082-2.056.292-4.1 1.95-5.324 2.925-2.149 4.807-1.76 15.1-2.17 45.479-1.812 43.654-1.185 45.569-1.659a102.953 102.953 0 0 0-.119-11.179c-.068-.731-.136-.438-2.594-.7a2.663 2.663 0 0 1-2.271-2.024c-.233-1.209-.342-2.208-.426-2.872-.932-.433-1.429-.452-1.794-1.551a18.087 18.087 0 0 1-.757-5.28c-.186-.088-10.636.107-12.788.049-1.821-.049-1.794-.535-1.907-.764-.173-.347-.147-.726.286-1.22a89.659 89.659 0 0 1 10.18-10.227c1.257-1.144 1.248-1.039 1.351-1.653.133-.8.4-1.419 1.211-1.554.026 0 98.2-12.471 108.484-14.691a4.439 4.439 0 0 1 5.302 2.47 24.443 24.443 0 0 1 .233 3.519c.118 1.268.917 2.236 1.222 5.61.128 1.415.469 4.624.4 4.847-.223.76.114 14.7-.517 15.9-.38.51-.289.144-.186 9.709a.742.742 0 0 0 .154.531c.413.676.057 1.938.438 7.241.086 1.2-.482.822-.466 1.6.1 5.017.314 5.231.233 6.657-.006.1 4.4 102.971 4.807 105.827 1.119.789 2.33 5.527 5.023 11.242.316.67.543.639.7.656.688.088 1.015.869 1.057 1.407Zm-1.1 4.192a35.036 35.036 0 0 0-.026-3.652c-.129-.915.157-.7-8.689 2.145-10.431 3.358-8.65 2.329-9.838 3.214.329 3.566-.589 5.653.6 5.294 3.682-1.114 14.1-4.618 17.483-6.34a.7.7 0 0 0 .473-.676Zm-18.3.121c17.1-5.676 16.7-4.844 16.5-5.706-.981-2.165-1.209-3.746-2.581-6.679-.585-1.252-1.164-3.615-1.942-4.3a74.245 74.245 0 0 1-8.315 2.776c-2.878.821-3.174.677-3.221 1.316-.845 11.637-.336 12.255-.438 12.596Zm10.988-20.071c.1-.3-.769-18.024-1.165-18.108a4.222 4.222 0 0 0-.181.408c-3.053 9.363-3.547 8.975-3.1 9.681.763 1.213 2.478 5.986 4.449 8.007Zm-.252 2.056c-2.6-4.04-1.316-1.185-4.937-8.887-.815 1.36-.176 1.075-3.692 9.549-.461 1.113-.8 2.2-1 2.795a63.9 63.9 0 0 0 9.74-3.1 2.868 2.868 0 0 0-.108-.354Zm-5.21-32.7c5.168 10.176 4.12 10.164 3.661-.438-.147-3.4-.023-9.711-.666-8.042-3.324 8.648-3.258 7.961-2.994 8.484Zm3.494 11.184c-.524-.135-3.07.825-7.882 1.9-.761.17-.355.265 1.312 2.741a52.981 52.981 0 0 1 3.06 5.2c.478-.747 3.259-8.905 3.517-9.837Zm-.436-1.446c.149-.044.312-.058.357-.294 0-.025-3.771-7.611-4.176-8.191-3.191 8.315-.756 2.663-3.971 10.339-.23.559-1.189.821 7.793-1.85Zm-3.116-30.1c5.011 10.572 2.476 7.812 2.476-9.171-.466-.063-.9 2.77-2.958 7.711-.248.609.12.695.485 1.466ZM178.015 134c.65-1.222 3.607-8.542 3.4-8.78-.261-.04-2.1.633-4.018 1.188-.946.273-2.939.575-3.493 1.048 3.955 4.451 3.196 5.544 4.111 6.544Zm-.058-37.424c3.639 4.158 3.665 10.664 3.1-2.388-.12-2.771.159-5.1-.324-6.094-.561 1.418-1.053 3.066-1.818 5.123-.909 2.432-1.601 2.623-.958 3.357Zm-1.149 28.649c5.043-1.577 4.256-1.326 4.6-1.582-1.379-2.473-2.264-5.124-3.74-7.669a19.126 19.126 0 0 0-1.3 2.771 29.244 29.244 0 0 0-1.524 4.5c-1.056 3.084-2.013 3.221 1.964 1.978Zm2.125-44.118c2.6 4.639 1.611 3.665 1.262-5.569-.145-3.831.267-4.044-2.366 2.972-.149.39-.153.357 1.104 2.595Zm-2.389-24.846c4.33-1.691 3.795-1 3.727-3.086a514.783 514.783 0 0 0-.173-4.5c-.072.016-6.922 2.189-6.945 2.2a64.86 64.86 0 0 0 .466 6.472c.342-.04-.252.153 2.925-1.088Zm3.686-31.253a1.706 1.706 0 0 0-.058-.827c-1.232 1.235-1.782 2.872-2.851 4.176 3.316 5.085 2.634 7.067 2.909-3.351Zm-.149 11.936a6.969 6.969 0 0 0 .151-2.343l-7.1.932a12.277 12.277 0 0 0-.084 2.361 64.051 64.051 0 0 0 7.033-.952Zm.459 67.753c-.634.049-.1-.131-2.057.68-4.623 1.914-4.707 1.758-4.353 2.292 1.925 2.9 2.562 4.627 3.328 5.536.699-1.425 1.342-3.705 3.082-8.505Zm-.534-83.378a.233.233 0 0 0 .233-.233c0-.852-.124-2.606-.291-4.094a14.019 14.019 0 0 0-.864-4.39.207.207 0 0 0-.31-.082 8.2 8.2 0 0 1-5.729 1.4.209.209 0 0 0-.231.205 58.31 58.31 0 0 0 .091 6.074c.069.466 0 .92.361.953.454.041 1.453.078 2.872.072 1.651-.007 2.795.093 3.861.086Zm-.081 45.1a29.368 29.368 0 0 1 .028-4.034c-.3-4.138-.232-3.835-1.025-1.952-.883 2.1-1.9 3.837-1.4 4.635a41.5 41.5 0 0 0 2.388 3.713 7.9 7.9 0 0 0 .009-2.363Zm-1.27 24.147c.415-1.577 1.249-3.191 1.2-4.164-1.921.729-1.49.88-6.455 2.832 2.391 3.3 2.55 4.411 3.43 5.557.791-.675 1.825-4.328 1.825-4.226Zm.913-43.017c.488-.173.331-.163.166-9.6l-6.461.992c-.389 1.2-.2 1.544-.163 3.691.05 3.044-.061 6.109.1 6.931a66.45 66.45 0 0 0 6.358-2.015Zm.031 56a1.523 1.523 0 0 0 .775-.5c-2.543-4.8-2.347-4.32-3.26-5.68-2.4 4.965-2.052 6.037-3.324 8.307-.435.77.925-.308 5.81-2.132Zm-1.479-78.78a21.249 21.249 0 0 0 1.576-2.257 32.949 32.949 0 0 0-5.9-.151c3.818 5.27 1.986 6.092 4.324 2.403Zm-1.656 38.16c.151-.144 2.625-5.345 2.562-6.211-5.781 2.026-4.77 1.654-5.259 1.891-.019.545 2.51 4.091 2.697 4.315Zm2.5-29.391-2.392-4.009a24.065 24.065 0 0 0-2.974 4.7c3.002-.184.774.007 5.367-.696Zm-.945 40.694a17.671 17.671 0 0 0 1.332-3.333 9.213 9.213 0 0 0-1.784.766c-4.015 1.819-3.345 1.44-3.6 1.717l2.9 4.136c.433-.804.642-2.018 1.153-3.291Zm.8-4.548a1.564 1.564 0 0 0 .135-.122c-2.119-3.307-2.228-3.7-2.485-3.123-.593 1.34-.9 2.191-1.551 3.81-.5 1.246-.9 1.629.021 1.235 1.31-.569 2.54-1.305 3.877-1.805Zm-.133-61.062c0-1.284-1.2-2.93-3.964-2.391a3.162 3.162 0 0 0-2.022 3.414 4.677 4.677 0 0 0 .68 1.454 3.241 3.241 0 0 0 4.966-.639c.311-.493.334-.753.337-1.843ZM176.524 163.4c1.8-4.991 1.949-4.882 1.53-5.377-.021-.025-3.13-6.074-4.05-6.882-.37.086-.025-.76.275 11.773.171 7.152.07 5.828 1.006 3.924a16.9 16.9 0 0 0 1.239-3.438Zm3.2-78.375a38.9 38.9 0 0 0-2.613-4.616 63.777 63.777 0 0 0-3.377 7.141c-.216.677 4.034-1.85 5.986-2.526Zm-2.441 51.059c.237-.618-.022-.592-1.085-3.217a12.794 12.794 0 0 0-2.665-4.066c-.379.128.054 15.928.294 16.489.732-1.07 1.2-3.339 3.452-9.207Zm-1.174-56.527c.419-.809.13-.886-2.268-4.393-.5-.733-.281 2.9-.415 5.492-.389 7.457-.526 5.091 2.679-1.1Zm-.3-14.263c.234-.551.167-.966-1.444-3.442-1.338-2.056-1.158-1.487-1.055-.736.02.151-.046 6.482.191 9.784.466-.6.825-2.13 2.304-5.607Zm-1.737 56.406c2.93-9.036 3.634-5.358 1.6-9.121-2.107-3.9-1.43-2.8-2.329-4.266-.207.3-.13-1.024-.028 15.049 0 .066.058.131.086.194.408-.078.246-.544.671-1.856Zm.6-21.618c2.068-5.993 2.182-1.77-.433-7.588-.233-.519-.559-1-.843-1.5l-.131.026a3.01 3.01 0 0 0-.039.391c-.352 15.621-.258 13.601 1.442 8.675Zm1.188-71.8c-2.529-4.728-1.686-3.82-2.264-4.288-.233 2.054-.261 7.8-.193 8.073.406.152-.125-.512 2.453-3.777Zm-2.881 143.354a49.638 49.638 0 0 0-.014-7.758c0-.023-.047-12.616-.543-13.508A87.422 87.422 0 0 0 165.9 159c2.655 4.886 4.182 8.748 7.075 12.644Zm-.592-100.568c.082-.664-.252-5.823-.249-6.7.005-1.2.291-4.544-.17-4.959-1.4 1.707-2.958 3.242-4.215 5.091a59.076 59.076 0 0 0 3.4 4.968c.88 1.29.847 1.682 1.23 1.608Zm.052-13.483c-.1-2.1-.16-1.819-.233-3.13-.185-3.312.123-3.428-.8-3.478-.764-.041-7.292-.319-7.406-.345a12.894 12.894 0 0 0-3.713-.161c.252 2.073.976 4 1.307 6.019a1.7 1.7 0 0 0 .168.4c.774.21 9.874.824 10.673.703Zm-.493 29.015c.172-.85.465-11.31.354-12.02a48.135 48.135 0 0 0-4.971 5.34c.289.607 4.095 6.48 4.617 6.68Zm-.059 58.772c.854 1.483.508.447.233-16.322a4.267 4.267 0 0 0-.095-.561c-2.02 2.438-3.841 4.874-5.69 7.346.665 1.044 4.813 8.252 5.552 9.536Zm-.035 41.112c.18-8.291.445-3.893.65-12.58-3.225-1-5.736-1.493-9.113-2.725-7.87-2.871-6.274-3.9-10.155 3.911-.143.288-1.9 3.789-2.154 4.623.02.015 19.566 7.206 20.772 6.77Zm-.023-62.166c.371.535.27 1.08.079-16.133-1.164 1.064-4.467 6.055-5.356 7.38 2.685 4.571 2.476 4.703 5.277 8.752Zm-.161-90.838a101.321 101.321 0 0 0 .3-10.553c-3.782 2.884-6.561 4.265-7.886 5.25.67.569 7.586 5.544 7.586 5.302Zm.278 70.839c.218-.273.076-13.429-.07-14.27-1.773 2.49-2.076 2.669-2.816 3.691a20.151 20.151 0 0 1-1.677 2.29c-.27.279-.254.392-.063.724.015.024 4.188 7.023 4.626 7.564Zm0 84.353c.018-.852-.1-.59-2.562-1.36-19.92-6.218-19.23-7.337-19.672-6.389-.34.729-.132.91-.11 1.416.151 3.416-.037 3.387.764 3.675 2.082.749 14.184 5.662 21.3 7.553.253-.181.17.054.28-4.896Zm0-138.812c0-8.166.151-8.2-.163-10.694-.932-.4-11.031-.4-14.927-.632-1.747-.105-2.152-.163-2.664.074a20.109 20.109 0 0 0 1.141 2.213c4.587 8.369 4.219 8.438 5.419 8.443.028-.006 7.4.28 11.194.595Zm-.208-13.038c.014-.291.156-1.036-.023-1.265-1.183-.039-15.6.061-18.441.091-.1.436-.3 1.887.466 1.887.035 0 15.248.519 17.8.519.322-.328.142-1.401.198-1.233Zm-.233-15.751a.2.2 0 0 0 .191-.2c.181-11.175-.488-12.431.753-14.062C165.424 7.96 68.154 20.321 66.41 20.583c-.261.04-.657.015-.818.466-.1.28-.315.921.091.932.04 0 3.854.177 13.883-.287 2.616-.121 5.035 0 5.962 0 4.212-.008 2.779-.136 16.918-.07 14.424.069 12.679-.281 16.741-.251 48.427.351 52.224-.417 52.318-.303Zm-.354 52.8c.554-.541.315-.353-8.617-1.139-1.272-.112 1.7 2.187 3.494 5.357a5.394 5.394 0 0 0 .493.635c.857-.545 2.594-2.867 4.63-4.853Zm-9.118-2.422c10.166.875 8.655.775 9.363.733a29.044 29.044 0 0 0-3.046-4.492c-.548-.687-.9-1.517-1.554-2.2-1.933 2.2-2.093 2.007-2.932 3.358-.959 1.552-1.383 1.762-1.831 2.601Zm9.731 100.705a46.909 46.909 0 0 1-3.386-5.666c-.543-.981-2.767-5.641-3.394-6.521-.466.51-5.836 7.294-6.055 8.021.372.233-.327-.046 3.246 1.164.249.084 1.724.744 2.562 1.06a58.836 58.836 0 0 0 7.027 1.942Zm-.7-66.751a3.305 3.305 0 0 0-.166-.431c-4.89-8.168-4.285-7.145-4.671-7.481-1.92 2.364-3.575 4.868-5.609 7.069.1.219-.095.083.974.209 2.485.293.582.229 3.319.466.02.002 5.579.252 6.152.165Zm-3.21 26.39c2.992-3.79 3.189-3.857 3.336-4.439-.911-.2 1.844.286-10.607-1.072.042.08 4.526 7.623 5.08 8.327.788-.927 1.216-1.581 2.19-2.816Zm1-21.844c1.571-1.982 2.037-2.389 2.28-2.841-.61-.412-4.218-.154-8.366-.748-1.281-.183-1.7-.647-1.942-.2 1.69 2.665 4.748 7.828 5.012 8.054.686-.62 2.553-3.683 3.015-4.265Zm1.854-87.682c-.375-.247-.073.124-4.7.051-1.561-.024-4.006.264-5.611.084-1.658-.186-2.208.274-3.687.063a1.779 1.779 0 0 0-1.188.1c2.6 1.562 4.959 3.274 7.491 4.742 1.946-1.355 4.698-2.734 7.694-5.04Zm-4.994 134.854c5.5-7.424 4.817-6.105 6-7.907-3.13-.531-2.562-.3-11.775-1.929-1.076-.19-.376.049 3.843 7.732 1.518 2.783 1.318 2.93 1.931 2.104Zm1.258-93.78c4.148-4.695 3.251-3.635 3.864-4.523-1.046-.095-1.6-.073-2.6-.16a25.485 25.485 0 0 0-5.1-.275 50.3 50.3 0 0 0 3.835 4.958Zm4.315 62.466c-.344-.717-2.065-3.323-2.224-3.563-1.592-2.406-2.1-3.887-3.3-5.476a36.015 36.015 0 0 0-2.6 3.75c-1 1.652-2 2.506-3.244 4.33 1.709.261 9.644.959 11.367.959Zm-7.52-91.217c4.276-.2 7.083.226 6.335-.373-.8-.638-7.269-5.144-7.292-5.161-1.449.932-1.356 1.018-7.839 5.105.034.175-.059.2.524.217.023 0 2.561.111 3.118.068a44.182 44.182 0 0 1 5.153.144Zm5.347 52.654c.972.037.4.242 1.663-.01-.447-.752-4.092-6.088-4.318-6.372-.885.913-4.541 4.947-4.767 5.632a33.408 33.408 0 0 0 7.421.75Zm2.805 60.589c-.017-.026-6.2-10.7-6.219-10.723-.636.233-2.562 3.726-6.554 8.41a1.336 1.336 0 0 0-.132.317c1.503.584 11.186 1.842 12.904 1.996Zm-5.319-52.81c.209-.233 2.993-3.827 4.586-6.2-2.648-.575-6.906-.114-8.967-.98a2.764 2.764 0 0 0-.764-.061c.131.233.191.366.275.485 4.828 6.775 4.37 6.714 4.87 6.756Zm-1.286 1.637c.321-.417.229-.72-.063-1.158-4.263-6.4-4.022-6.213-4.474-6.477-.372.958-.913 13.641-.6 14.3.557-.593 2.615-3.387 5.14-6.665Zm-4.154-11.654c5.671-6.361 4.661-4.842 3.936-6.286a27.357 27.357 0 0 0-3.2-4.335 1.406 1.406 0 0 0-.349-.232c-.2 3.1-.107 6.139-.406 9.159a7.994 7.994 0 0 0 .019 1.694ZM163.014 68c.844-1.341 2.455-2.506 3.079-3.647-.019-.023-3.629-4.991-3.9-5.173-.233 5.488-.389 1.684-.389 10.516.288-.278.128.023 1.21-1.696Zm1.544 48.194c.575-.843.571-.631-.075-1.712-2.819-4.715-3.642-6.4-4.658-7.487-.232 1.066-.554 15.676-.554 15.716a.521.521 0 0 0 .331.535c1.523-2.271-1.43 2.313 4.956-7.053Zm-.217 42.586a38.143 38.143 0 0 0-2.382-4.549c-3.388-6.057-3.121-5.722-3.575-6.011-.308 3.58-.683 18.292-.508 18.942.124-.162-.557.725 6.465-8.383Zm-5.717-14.631c.833-.491 5.673-7.481 6.251-8.342-4.658-7.886-5.229-8.934-5.758-9.258-.048.607-.624 16.695-.493 17.599ZM161.589 28.2c-.3-.348.027-.112-1.128-.865-6.2-4.039-4.164-2.948-6.113-3.94-.128.64-.261 9.083-.082 9.714 2.483-1.626 5.01-3.077 7.323-4.909Zm-9.323 4.651c.978.752.547.239.547-9.514-.529.323-6.256 4.054-6.831 4.658.018-.005 2.923 2.266 6.284 4.851Zm-.21 1.532c-.352-.5.75.485-6.882-5.422-.418-.323.158-.7-6.808 4.23a7.7 7.7 0 0 0-.687.64c.403.069 14.354.547 14.377.547Zm-1-11.384a2.924 2.924 0 0 0 .38-.391c-8.618.4-8.354-.233-12.782.284-.051.233-.173 0 .983.787.893.609 4.136 2.785 4.851 3.261.398.26.143.318 6.571-3.946Zm-.459 80.939c-.053-2.976.237-3.661.091-5.156-.029-.3-.283-21.536-.352-23.29-.03-.782-.251-3.219-.16-4.516.137-1.966-.148-2.664-.11-4.87.092-5.254-.072-9.479-7.04-9.027-1.95.126-9.251.507-10.315.422-5.445-.44-28.363 1.893-42.528 2.012-9.658.081-6.623.173-9.828.335-2.385.121-2.659-.174-2.66.5v2.65c1.286.1 5.455-.054 6.754-.151a24.311 24.311 0 0 1 4.807-.278c16.471 0 45.784-2.093 47.148-2.1a40.019 40.019 0 0 0 4.852-.444c3.575-.138 4.879-.358 5.172 2.759.983 10.489.732 69.011.031 75.558-.958 8.938 2.11 8.457-5.031 9.472a16.555 16.555 0 0 0-3.4.211c-.023 0-6.083.8-6.593.813a15.726 15.726 0 0 0-2.816.359c-3.2.674.645-.823-25.053 2.015-4.017.443-14.423.589-38.6 2.464-9.059.7-16.866.889-22.917 1.355-.037 0-9.037.914-10.569.829-2.029-.111-6.148 1.116-6.246-3.7-1.462-71.36-.613-41.317-.613-75.748 0-1.8-.141-6.081.04-7.129.7-4.069 2.14-4.351 8.151-4.658 5.473-.28 37.341-1.188 42.793-1.631-.046-.931.047-1.823-.072-2.755-8.232.455-22.986.591-42.667 1.4-5.822.241-5.5.45-6.57.478a5.918 5.918 0 0 0-3.016 1.088 4.911 4.911 0 0 0-2.48 3.537c-.463 1.952-.162 5.878-.261 9.064-.088 2.867-.192 6.754-.014 9.628.752 12.074.035 30.277.592 46.622.812 23.819-2 26.361 3.81 30.934.655.514 1.3.412 2.967.489 2.809.128-2.746.332 13.588-1.412 37.673-4.023 44.057-3.8 50.208-4.408 6.58-.654 17.647-1.43 17.812-1.447 16.963-1.742 32.3-2.86 32.322-2.86 2.96-.022 2-.181 4.583-.545a4.422 4.422 0 0 0 3.126-2.059c1.008-2.011.7-12.4.7-12.895-.008-1.763.081-9.367.067-9.987-.282-12.623.515-11.806.291-23.94Zm-4.751-9.963c.147-2.9.246-.466.082-6.661-.482-18.166-.292-22.1-.685-24.825-.126-.875-1.987-1.213-2.867-1.127a50.355 50.355 0 0 1-5.941.585c-2.66.021-4.023.366-5.59.465-15.046.954-50.418 1.805-53.143 2.176a147.452 147.452 0 0 0-.023 4.047c1.115.313 8.249-.52 11.878-.717 2.669-.145 1.921.1 6.821-.207 8-.5 8.867-.134 11.18-.305 10.9-.809 14.267-1.127 25.239-1.23 5.724-.053 5.482-.354 6.961.149a2.189 2.189 0 0 1 1.309 1.889c0 .023.494 14.84.254 17.027-.256 2.329.261.1.14 13.147-.016 1.71.347 2.539.307 5.248-.078 5.3-.451 8.184-.545 21.85a71.283 71.283 0 0 1-.31 8c-.268 6.7.867 6.9-4.15 7.273-38.176 2.832-30.549 2.565-44.141 3.62-15.055 1.167-4.844-.176-25.282 1.816-3.493.341-12.206 1.073-24.158 1.67-12.279.614-11.774 1.947-11.976-5.822-.485-18.632-1.007-68.008-.508-69.171.658-1.531 1.817-1.592 3.352-1.836a25.761 25.761 0 0 1 3.566-.4c2.379.22 5.589-.65 6.521-.573 3.074.255 19-.931 19.021-.931 9.848-.233 12.11-.41 12.406-.434a21.909 21.909 0 0 0 0-4.131c-.207-.042-17.321.629-17.346.631-3.145.259-3.289-.247-5.9.074s-19.086.618-21.711.85c-5.552.491-4.658 1.829-4.669 9.712-.038 25.619-.679 30.4.521 60.645.6 15.006-.762 17.239 1.556 17.77 2.775.636 12.735-.749 20.23-1.1 17.3-.818 18.5-1.045 24.78-1.565 10.481-.868 9.528-.151 20.116-1.327 1.572-.175 6.309.014 14.77-.946 13.585-1.541 14.365-.812 27.869-2.536.785-.1.915 0 5.089-.417 5.31-.527 3.976-.487 4.054-4.658.017-.88.169-1.56.331-5.217 1.287-29.015.283-42.669.595-42.513ZM139.41 30.88c2.783-2.2 3.726-2.192 4.2-3.009-5.436-3.668-6.067-4.348-6.537-4.465-.075.447.168 1.651.249 3.261.061 1.213-.338 5.487-.112 5.806.211-.04 2.176-1.573 2.2-1.593Zm.394 39.751c.068-2 .215-3.067-1.493-3.2-6.891-.545-28.55 1.249-31.615 1.362-1.248.046-6.905-.174-9.5.168-3.572.47-5.275-.041-9.563.433-8.218.908-7.953.466-9.923.743 0 .123-.3 5.091-.131 6.812.023 0 30.466-1.8 35.634-1.539a28.751 28.751 0 0 0 3.926-.1c14.607-1.254 15.907-.042 22.736-.815-.002-1.209-.119-2.436-.075-3.864Zm-4.018-37.867c.093-1.192.493-8.324 0-9.316a59.324 59.324 0 0 0-7.36 5.033c.408.277 6.288 3.792 7.138 4.281.036.023.1.002.222.002Zm-1.861-9.705a3.165 3.165 0 0 0 .389-.37c-.124 0-14.172-.166-14.85 0 1.442 1.26 6.575 4.27 7.308 4.814.628.466.328-.128 7.153-4.444Zm.724 10.695c-.529-.319-5.243-3.186-7.155-4.353-.6-.366-.174-.151-7.918 4.472.386.149 0 .15 1.835.086 2.248-.079 1.931.079 3.414.051s3.689-.245 5.019-.226c-.02-.1 3.604.316 4.805-.03Zm-15.786-.981c.58-.2 7.262-4.229 6.927-4.443-7.569-4.829-6.454-4.561-7-4.626-.105 1.631.117-2.038 0 8.652a1.834 1.834 0 0 0 .073.417Zm-4.909 152.656c2.346-1.387 2.614.5 2.308-3.176-.044-.522-.912-.72-4.085-2.562-.024-.014-8.024-4.781-9.356-5.692-4.983-3.408-4.919-3.748-4.944-6.9-.078-9.649-.1-7.281-.1-8-.513 0-1.016.1-2.036.18-11.125.836-15.928.9-21.284 1.968-8.018 1.593-12.91 2.44-14.876 2.995.135 17.749-1.926 11.542 13.017 23.217a51.286 51.286 0 0 0 6.055 3.976c1.682 1.046 1.954 1.728 3.082 1.4a20.565 20.565 0 0 0 3.714-.622c.774-.247 3.255-.549 4.761-1.01.095-.029 5.32-1.445 8.787-2.043.538-.093 6.988-1.861 7.844-2.045 6.046-1.303 6.609-1.388 7.113-1.686Zm-4.595-157.791c.635-.347 6.83-4.539 6.816-4.968-8.547.325-12.006.135-13.074.189-.073.223-.734-.405 6.258 4.779Zm6.074 5.978-6.012-4.387c-4.89 2.641-1.511 1.069-6 3.789a2.964 2.964 0 0 0-.932.736c2.006.6 6.237-.191 10.294-.079 2.461.067 2.526.2 2.65-.059Zm-7.19-5.112.019-.174c-2.215-1.531-4.242-3.317-6.6-4.833-.011.2.166 8.785.21 9.032 5.961-3.778 3.362-2.653 6.371-4.029Zm-21.6 97.685c17.608-6.328 17.866-4.444 17.183-7.313-3.307-13.893-1.443-8.219-4.823-19.945-1.262-4.377-.545-2.616-.969-3.575a39.112 39.112 0 0 0-5.9 1.583l-10.32 2.446c-12.179 2.562-10.947 3.17-12.549 3.246a57.5 57.5 0 0 0-10.55 2.905c.1.556 5.865 25.539 7.028 26.094 1.912.911 2.178-.18 5.1-.7.683-.121 2.5-.861 6.133-1.935 9.841-2.906 9.424-2.719 9.666-2.806Zm13.646-93.639c.1-1.607.55-7.569-.109-9.116-.668.347-5.993 3.864-6.521 4.393a59.3 59.3 0 0 0 6.63 4.723Zm-6.863 1.164c.023 0 5.447.159 6.055.014-.6-.589-4.294-2.939-6.917-4.954a.466.466 0 0 0-.584-.06 67.649 67.649 0 0 0-6.918 4.87c.038.577 3.944-.014 5.993-.068.338-.009-.123.047 2.371.198Zm4.548-10.259c.7-.44.685-.725-.13-.738-1.845-.03-10.026-.159-11.815.216 2.047 1.579-2-1.232 6.414 4.029.957-.554 5.531-3.507 5.531-3.507Zm-.121 70.494c-.745-3.407-2.122-8.73-2.408-10.036a1.423 1.423 0 0 0-1.8-1.078c-2.411.673-10.645 1.938-11.883 2.725a7.642 7.642 0 0 1 .215 4.479 5.5 5.5 0 0 1-7.961 4.338c-1.164-.5-.718-2.409-.233-3.439 1-2.123 3.631-.332 3.109-3-.41-2.1-4.287.347-7.974.86-2.75.383-4.634 1.166-9.509 2.562-2.639.755-4.228.531-3.759 2.3.185.7.849 2.644 1.083 3.673 1.162 5.125.333 2.653 1.681 6.754 3.552-.771 9.041-2.605 9.936-2.636 1.807-.062 4.161-1.34 6.381-1.838 2.49-.555 21.469-4.813 23.122-5.664ZM87.189 30.367c1.968-1.241 3.423-2.289 4.006-2.561-.4-.329-6.943-4.453-6.966-4.47a9.146 9.146 0 0 0-.029 2.194c.175 1.88-.426 5.916-.072 7.192a12.05 12.05 0 0 1 3.061-2.355Zm-3.54 5.73c0-.492.028-.51-2-.385-2.844.177-2.73-.02-12.7-.02a12.49 12.49 0 0 0 .659 4.425c.3 1.125 5.5.508 6.414.44 6.745-.502 7.56 1.459 7.627-4.457Zm-.9-3.058c.217-1.267.3-7.581.3-9.141 0-1.284-.729.486-7.418 4.054-.878.464.432.613 7.114 5.087Zm-1.455 11.8c.295-2.473.2-2.1.081-2.422-3.312 0-6.584.21-9.975.156.622 2.8.275 2.865 2.734 3.049a21.944 21.944 0 0 0 6.521-.14.7.7 0 0 0 .627-.643Zm.354-22.223c-2.183-.051-5.7.247-10.351.317-6.127.093-4.59-.2-2.492 1.164 4.3 2.791 1.978 1.06 5.3 3.438 8.293-5.27 7.282-4.572 7.527-4.919ZM81.234 33.6c.074-.317.028-.057-4.339-2.86-2.585-1.659-2.646-2.031-3.366-1.572-4.715 3-3.889 2.641-6.873 4.695a5.369 5.369 0 0 0 1.892-.04c4.348-.443 5.689.18 12.674-.223Zm-.853 57.931a8.588 8.588 0 0 0 .508-4.786 4.4 4.4 0 0 0-1.744-3c-1.472-.848-1.8-.512-3.112-.466a3.042 3.042 0 0 0-3.126 3.26c1.556-.32 3.987-1.254 4.691.548.66 1.688.316 3.1-.908 3.551-1.453.535-1.879-.261-2.329 1.689-.152.655-.1 1.039.65 1.276a4.63 4.63 0 0 0 5.37-2.074Zm-4.66-14.481c.026-.487-.105-6.219-.2-6.91a88.938 88.938 0 0 0-8.986.274c-5.472.225-13 .774-21.993.939-2.42.045-3.545.58-5.823.512-2.184-.065-2.683.282-5.317.42-2.1.109-1.863 1.863-1.772 7.406 1.164.251-1.835-.242 21.059-1.013 1.076-.037 9.139-.879 9.7-.9 11.902-.37 8.9-.388 13.332-.728ZM65.585 32.88c.48-.165 6.556-4.131 7.232-4.716-1.188-1.05-6.249-4.192-7.288-4.348 0 6.884-.229 8.457.056 9.064Zm-1.064 1.074c-.466-4.341.326-10.66-.34-10.033a125.421 125.421 0 0 0-9.51 9.362c-.165.182-1.073.73.1.792.529.025 8.876.005 9.75-.121ZM15.868 159.182c1.949 2.094 4.588 4.658 7.255 4.46-4.327-4.139-3.255-6-3.3-24.706 0-.638-.7-32.4-.656-62 .016-11.619-.147-11.827 3.207-14.831-.711-.135-4.344-.04-6.035 1.05-3.027 1.952-1.922 3.859-2.18 11.289-.326 9.411.175 10.261.312 19.421.038 2.518.131 34.821.161 35.653.575 15.941-.514 27.782 1.236 29.664Z"></path><path d="M175.858 7.6a1.383 1.383 0 0 1 .466 2.629 1.363 1.363 0 0 1-1.905-.54 1.422 1.422 0 0 1 1.439-2.089Z"></path><path d="M136 80.841c.213 2.132.438 9.731.338 12.71-.195 5.761-.048 8.8-.025 10.219a1.8 1.8 0 0 1-1.957 1.926c-2.95-.186-3.545 0-11.412.149-3.883.077-4.209 1.055-4.253-1.369-.164-8.934-.214-5.152-.182-7.788.2-16.566-.605-16.21 1.467-16.243 12.573-.199 15.84-1.438 16.024.396Zm-1.088 15.428c.244-5.8.326-6.088.154-13.4-.035-1.486-.158-1.9-1.057-1.9-1.54-.006-5.124.464-13.262.64-.959.021-1.164 0-1.125 1.484.132 4.909.222 19.214.233 21.485.3.193 7.255-.207 7.281-.207 7.834-.092 6.987.111 7.918-.1.035-1.931-.302-4.178-.142-8.002Z"></path><path d="M133.189 116.929a.991.991 0 0 1-.948.785c-.729.092-1.456.23-2.187.284-.981.073-1.346-.513-2.329-.177-1.444.493-2.084 0-3.261.219-1.275.235-1.908-.315-2.794.389-.335.266-.482.254-.729.07-.745-.555.465-1.9 2.221-1.663.806.107 1.312-.245 2.881-.072 1.195.131 1.864-.61 3.18-.159.776.267 1 .059 3.26-.247.264-.035.426.11.706.571Z"></path><path d="M132.45 108.962a.932.932 0 0 1-.752.9 4.425 4.425 0 0 1-1.486-.119c-1.806-.747-2.543.428-4.155-.466-1.809.818-2.25 1.247-3.239.268-.558-.553-.667-.768-1.787.133-.184.148-.512.58-.95.184s.413-1.567 1.724-2a1.664 1.664 0 0 1 1.565.405c.792.593.189.658 1.821-.07a1.513 1.513 0 0 1 1.444-.135c.6.31.847.184 2.04 0 1.288-.2 1.794.608 2.893.405.232-.027.857.138.882.495Z"></path><path d="M131.7 70.158c1.631.485.859 2.4-.48 2.39-1.046-.011-1.309-.727-1.113-1.528a1.124 1.124 0 0 1 1.593-.862Z"></path><path d="M126.43 70.375a1.256 1.256 0 0 1 1.246 1.306 1.449 1.449 0 0 1-1.5 1.17c-1.599-.1-1.136-2.574.254-2.476Z"></path><path d="M127.4 112.651a.8.8 0 0 1 .657.466c-.233 1.185-1.165.653-3 .743-1.607.078-.976-.585-2.048-.355-1.53.329-2.863.662-2.1-.7.079-.14.477-.146 2-.534 1.264-.322 1.311.5 2.357.28a6.816 6.816 0 0 1 2.134.1Z"></path><path d="M120.71 70.5a1.294 1.294 0 1 1-.028 2.587 1.31 1.31 0 0 1-1.206-1.2 1.434 1.434 0 0 1 1.234-1.387Z"></path><path d="M112.631 181.652a.841.841 0 0 1 .6.482c-.291 1.192-.993.88-4.225 1.56-.023 0-18.273 4.575-26.085 5.949-2 .352-2.743.155-15.357-9.386-3.762-2.846-5.095-3.557-5.257-5.848a37.933 37.933 0 0 1-.011-7.872l.7-.059c.7 1.437 0 2.443.424 5.809.234 1.863-.054 2.266.559 3.2 1.287 1.97 3.8 3.141 6.263 5.086 4.354 3.439 7.113 5.009 10.55 7.374 1.123.773 3.235-.109 17.8-3.128 9.884-2.049 4.344-1.028 13.017-2.753.655-.126.672-.521 1.022-.414Z"></path><path d="M98.394 107.727c1.982 7.353 3.7 9.981 1.763 10.378a13.653 13.653 0 0 0-2.206.848 61.288 61.288 0 0 1-7.5 2.588 1.4 1.4 0 0 1-1.658-.7 77.951 77.951 0 0 1-2.979-10.648c-1.394-5.3-2.647-6.817-.885-7.453 2.221-.8 6.357-2.3 9.514-3.1 2.277-.572 2.044 1.014 3.951 8.087Zm1.518 9.19c-.4-1.364-2.413-8.007-2.524-8.472-2.056-8.557-1.261-8.189-4.258-7.3a85.393 85.393 0 0 0-8.13 2.794c2.366 6.552 4.192 15.539 4.93 16.457.354-.051 9.144-3.059 9.982-3.479Z"></path><path d="M98.2 115.39c.359.249.544.85-.112 1.043-.8.233-2.406-1.807-5.066-4.625a.778.778 0 0 0-.4.6c-1.844 6.449-.957 6.821-2.345 6.612a.907.907 0 0 1-.142-.715 44.049 44.049 0 0 1 1.586-6.869.769.769 0 0 0-.217-.982c-1.572-1.428-.309-.956-4.7-4.353-.186-.145-.5-.648-.207-.9.449-.38.811-.044 1.63.513 2.265 1.538 1.258.74 3.911 3.6 1.041-3.131.855-3.595 2.1-7.022a.4.4 0 0 1 .787.06 4.885 4.885 0 0 1-.044 1.165c-1.658 6.924-2.032 6.7-1.432 7.283 3.397 3.328 3.289 3.641 4.651 4.59Z"></path><path d="M85.81 156.273a1.35 1.35 0 1 1 .228-2.273c.849.765.63 1.6-.228 2.273Z"></path><path d="M83.854 119.731c.806-.4 1.494.027 1.327.563-.237.765-.528.5-1.344.953s-.932-.131-1.688.466c-1.109.875-2.753 1.444-3.855.85a3.057 3.057 0 0 1-2.016.731c-.466-.043-.932.35-1.982.357-.632 0-1.176.89-2.145.931-.466.02-1.272 1.014-3.161.575-1.1-.255-.971.591-1.586.66-.491.055-.918-.529.026-1.535 1.161-1.24 1.77.342 3.638-.72.859-.489.859-.091 1.863-.759a2.324 2.324 0 0 1 1.735-.541 6.347 6.347 0 0 1 2.15-.395c.267 0 1.164-.974 1.905-.571.824.449 2.112-.256 2.869-.827 1.053-.794 1.046-.138 2.264-.738Z"></path><path d="M81.453 109.486a1.209 1.209 0 0 1-.962 1.022c-.373.1-.732.26-1.1.356-.9.232-.911-.17-1.852.336-1.165.626-1.63 1.076-2.734.894a10.291 10.291 0 0 0-1.323-.014c-.729-.158-.952.357-2.178 1.165s-1.294-.352-2.445.517a1.375 1.375 0 0 1-1.148.445c-.466-.074-.44-.408-.727-.8a5.649 5.649 0 0 0-2.51 1.575c-.345.328-1.079.107-.909-.447a5.449 5.449 0 0 1 2.641-2.241 2.289 2.289 0 0 1 2.1.186c.576-.316 1.027-.635 1.663-.363.99.423 2.174-1.823 3.221-1.4.347.14 1.186-.2 1.954.037.413.125.664-.13 2.1-.9 1.063-.573.8-.026 2.283-.438 1.02-.287 1.232-.776 1.926.07Z"></path><path d="M79.85 103.859c.49.232.208 1.009-.321 1.218-3.069 1.215-2.269.342-5.271 1.882-1.262.647-.844-.609-2.69 1.041a1.476 1.476 0 0 1-2.007.156c-.507-.351-.97-.118-1.421.109-.951.478-1.232 1.263-2.056.51-.955-.871-2.488.515-3.084 1.4l-.566-.082c-.515-.806.637-1.771 1.4-2.345 1.757-1.328 2.417.25 3.4-.447a2.54 2.54 0 0 1 2.766-.387c.556.338.728-.02 2.124-.975.9-.614.874.133 1.814-.3a12.686 12.686 0 0 1 2.778-1.116c2.21-.301 2.112-1.15 3.134-.664Z"></path><path d="M77.1 115.583c1.056.182.622 1.272.066 1.411-.825.206-1.582.6-2.432.76-1.442.266-2.618 1.567-3.521 1.569a1.641 1.641 0 0 0-1.519.289c-1.244.808-2.274-1.384-3.475.478-.685 1.061-1.273.233-1.125-.17a2.5 2.5 0 0 1 2.574-1.843c.966.075 1.222.577 1.814.142a1.607 1.607 0 0 1 1.363-.314c.447.186.65-.024 1.663-.652a15.636 15.636 0 0 1 3.556-1.356c.512-.197.789-.356 1.036-.314Z"></path><path d="M65.844 92.06c2.823 1.453 2.862 5.606.959 7.667a4.087 4.087 0 0 1-4.29 1.118c-1.8-.863-2.426-1-3.079-2.75-1.361-3.641 2.013-8.295 6.41-6.035Zm-3.487 7.281c2.067 1.342 4.761-.8 4.532-3.016.026-2.767-1.815-3.164-2.671-3.494a2.36 2.36 0 0 0-1.9.219 4.274 4.274 0 0 0-1.928 2.364 3.85 3.85 0 0 0 .233 2.271c.677 1.415.577.905 1.734 1.656Z"></path><path d="M40.15 74.281a1.934 1.934 0 0 1 .154 2.168 2.728 2.728 0 0 1-2.8 1.608c-.931 0-2.429-1.377-2.051-2.592a2.47 2.47 0 0 1 .875-1.63 2.522 2.522 0 0 1 3.2-.156 8.245 8.245 0 0 1 .622.602Zm-.773 1.329a1.541 1.541 0 0 0-1.4-1.369 1.478 1.478 0 0 0-1.4 1.437 1.374 1.374 0 0 0 1.351 1.188 1.519 1.519 0 0 0 1.449-1.256Z"></path><path d="M39.377 75.61a1.541 1.541 0 0 0-1.4-1.369 1.478 1.478 0 0 0-1.4 1.437 1.374 1.374 0 0 0 1.351 1.188 1.519 1.519 0 0 0 1.449-1.256Z" fill="#ffffff"></path></svg>